<svg width="25" height="24" viewBox="0 0 25 24" fill="none" xmlns="http://www.w3.org/2000/svg">
<path fill-rule="evenodd" clip-rule="evenodd" d="M13.5077 13.0278L14.9603 11.6708C15.6883 10.9907 16.1461 10.0142 16.1461 8.92308C16.1461 6.84899 14.496 5.2 12.5 5.2C10.504 5.2 8.85383 6.84899 8.85383 8.92308C8.85383 10.0142 9.3117 10.9907 10.0397 11.6708L11.4923 13.0278L9.6149 13.6811C7.09218 14.5589 5.2935 16.5097 4.82227 18.8H20.1777C19.7065 16.5097 17.9078 14.5589 15.3851 13.6811L13.5077 13.0278ZM21.3994 18.8C21.4657 19.1914 21.5 19.5922 21.5 20H3.5C3.5 19.5922 3.53433 19.1914 3.60058 18.8C4.01737 16.337 5.69735 14.2418 8.03537 13.0522C8.41402 12.8595 8.80993 12.6906 9.22053 12.5477C8.91125 12.2588 8.63904 11.9295 8.41199 11.5681C7.932 10.8041 7.65383 9.89661 7.65383 8.92308C7.65383 6.20414 9.82353 4 12.5 4C15.1764 4 17.3461 6.20414 17.3461 8.92308C17.3461 9.89661 17.068 10.8041 16.588 11.5681C16.3609 11.9295 16.0887 12.2588 15.7794 12.5477C16.19 12.6906 16.586 12.8595 16.9646 13.0522C19.3026 14.2418 20.9826 16.337 21.3994 18.8Z" fill="#231F20"/>
</svg>
