<svg width="100" height="100" viewBox="0 0 100 100" fill="none" xmlns="http://www.w3.org/2000/svg">
<path d="M10.4167 14.5835H65.8992V42.4344H61.7325V18.7502H14.5834V81.6888H65.8992V85.8554H10.4167V14.5835Z" fill="#8A8A8A"/>
<path d="M54.0571 30.3729H22.2588V34.5396H54.0571V30.3729Z" fill="#8A8A8A"/>
<path d="M22.2588 42.2151H54.0571V46.3818H22.2588V42.2151Z" fill="#8A8A8A"/>
<path d="M22.2588 54.0572H46.1624V58.2239H22.2588V54.0572Z" fill="#8A8A8A"/>
<path d="M22.2588 65.8993H46.1624V70.066H22.2588V65.8993Z" fill="#8A8A8A"/>
<path d="M90.6369 18.7502V27.3468L82.0399 27.3468L82.04 61.7331C82.04 68.8548 76.2667 74.628 69.145 74.628C62.0233 74.628 56.2501 68.8548 56.2501 61.7331C56.2501 54.6114 62.0233 48.8381 69.145 48.8381C70.6521 48.8381 72.0989 49.0967 73.4433 49.5719V18.7502H90.6369Z" fill="#8A8A8A"/>
</svg>
