<svg width="24" height="24" viewBox="0 0 24 24" fill="none" xmlns="http://www.w3.org/2000/svg">
<path d="M11 10H10V12H11V10Z" fill="#231F20"/>
<path d="M10 13H11V15H10V13Z" fill="#231F20"/>
<path fill-rule="evenodd" clip-rule="evenodd" d="M3 18V14.8293C3.31278 14.9398 3.64936 15 4 15C5.65685 15 7 13.6569 7 12C7 10.3431 5.65685 9 4 9C3.64936 9 3.31278 9.06015 3 9.17071V6H21.5455V18H3ZM20.5455 7H11V9H10V7H4V8C6.20914 8 8 9.79086 8 12C8 14.2091 6.20914 16 4 16V17H10V16H11V17H20.5455V7Z" fill="#231F20"/>
</svg>
