<svg width="101" height="100" viewBox="0 0 101 100" fill="none" xmlns="http://www.w3.org/2000/svg">
<path d="M35.1204 60.2625V21.875H42.1057V60.2625L52.4424 49.8578L57.3817 54.8297L38.613 73.7218L19.8443 54.8297L24.7837 49.8578L35.1204 60.2625Z" fill="#8A8A8A"/>
<path d="M64.2255 87.5H13V82.8125H64.2255V87.5Z" fill="#8A8A8A"/>
<path fill-rule="evenodd" clip-rule="evenodd" d="M73.4167 50C83.772 50 92.1667 41.6053 92.1667 31.25C92.1667 20.8947 83.772 12.5 73.4167 12.5C63.0613 12.5 54.6667 20.8947 54.6667 31.25C54.6667 41.6053 63.0613 50 73.4167 50ZM71.5417 36.1719V18.125H75.2917V36.1719H71.5417ZM75.2917 39.4531V44.375H71.5417V39.4531H75.2917Z" fill="#8A8A8A"/>
</svg>
