<svg width="24" height="24" viewBox="0 0 24 24" fill="none" xmlns="http://www.w3.org/2000/svg">
<path fill-rule="evenodd" clip-rule="evenodd" d="M3.71517 9.12023H3V11.6455H3.71517V9.12023ZM2 8.12023V12.6455H4.71517V8.12023H2Z" fill="#231F20"/>
<path d="M19.1961 9.93033H21.9113V10.8354H19.1961V9.93033Z" fill="#231F20"/>
<path fill-rule="evenodd" clip-rule="evenodd" d="M21.9113 9.93033H19.1961V10.8354H21.9113V9.93033Z" fill="#231F20"/>
<path d="M19.6486 12.4123L22 13.7699L21.5475 14.5537L19.1961 13.1961L19.6486 12.4123Z" fill="#231F20"/>
<path fill-rule="evenodd" clip-rule="evenodd" d="M19.1961 13.1961L21.5475 14.5537L22 13.7699L19.6486 12.4123L19.1961 13.1961Z" fill="#231F20"/>
<path d="M19.6486 8.4515L22 7.09392L21.5475 6.31012L19.1961 7.6677L19.6486 8.4515Z" fill="#231F20"/>
<path fill-rule="evenodd" clip-rule="evenodd" d="M19.1961 7.6677L21.5475 6.31012L22 7.09392L19.6486 8.4515L19.1961 7.6677Z" fill="#231F20"/>
<path d="M2.90506 12.6455H3.81012V19.5H2.90506V12.6455Z" fill="#231F20"/>
<path fill-rule="evenodd" clip-rule="evenodd" d="M2.90506 12.6455H3.81012V19.5H2.90506V12.6455Z" fill="#231F20"/>
<path fill-rule="evenodd" clip-rule="evenodd" d="M6.62026 8.8588V11.9069L16.386 14.9118V5.85396L6.62026 8.8588ZM5.62026 8.12022V12.6455L17.386 16.2657V4.5L5.62026 8.12022Z" fill="#231F20"/>
</svg>
