<svg width="25" height="24" viewBox="0 0 25 24" fill="none" xmlns="http://www.w3.org/2000/svg">
<path fill-rule="evenodd" clip-rule="evenodd" d="M12 15C15.5899 15 18.5 12.0899 18.5 8.5C18.5 4.91015 15.5899 2 12 2C8.41015 2 5.5 4.91015 5.5 8.5C5.5 12.0899 8.41015 15 12 15ZM12 16C16.1421 16 19.5 12.6421 19.5 8.5C19.5 4.35786 16.1421 1 12 1C7.85786 1 4.5 4.35786 4.5 8.5C4.5 12.6421 7.85786 16 12 16Z" fill="#231F20"/>
<path d="M9.72765 12C9.44517 12 9.30393 11.8615 9.30393 11.5844V11.1904C8.91133 11.1426 8.55224 11.0232 8.22667 10.8321C7.97291 10.6506 7.93222 10.4261 8.10458 10.1586C8.20034 10.0154 8.32242 9.93176 8.47085 9.90788C8.61448 9.88877 8.76291 9.92699 8.91612 10.0225C9.14114 10.1228 9.3566 10.173 9.56247 10.173C9.98859 10.173 10.2016 9.99864 10.2016 9.64995C10.2016 9.50188 10.1179 9.36336 9.95028 9.23439C9.84974 9.15319 9.65583 9.04094 9.36856 8.89765C9.26323 8.8451 9.18423 8.8045 9.13157 8.77584C8.79642 8.59911 8.54985 8.42238 8.39185 8.24565C8.16682 8.00205 8.05431 7.71546 8.05431 7.38587C8.05431 6.97987 8.16443 6.64313 8.38467 6.37564C8.60491 6.10338 8.91133 5.92665 9.30393 5.84545V5.41556C9.30393 5.13852 9.44517 5 9.72765 5C10.0053 5 10.1442 5.13852 10.1442 5.41556V5.83112C10.4746 5.87888 10.7714 6.00307 11.0347 6.20368C11.255 6.39952 11.2645 6.61685 11.0635 6.85568C10.9581 6.97509 10.8384 7.04197 10.7044 7.0563C10.5703 7.07062 10.4362 7.03002 10.3022 6.93449C10.1538 6.86762 10.003 6.83419 9.84974 6.83419C9.46193 6.83419 9.26802 6.99898 9.26802 7.32856C9.26802 7.4623 9.34463 7.5841 9.49784 7.69396C9.59359 7.76561 9.77553 7.86592 10.0436 7.99488C10.4793 8.20027 10.7858 8.38178 10.9629 8.53941C11.2693 8.81644 11.4225 9.15797 11.4225 9.56397C11.4225 9.9652 11.3172 10.3019 11.1065 10.5742C10.8815 10.8656 10.5607 11.0566 10.1442 11.1474V11.5844C10.1442 11.8615 10.0053 12 9.72765 12Z" fill="#231F20"/>
<path d="M14.104 11.2047C13.5247 11.2047 13.0699 10.9683 12.7395 10.4954C12.39 10.0034 12.2152 9.31082 12.2152 8.4176C12.2152 7.51962 12.39 6.8318 12.7395 6.35415C13.0699 5.90038 13.5247 5.67349 14.104 5.67349C14.6833 5.67349 15.1406 5.90276 15.4757 6.36131C15.8252 6.83896 16 7.52201 16 8.41044C16 9.29887 15.8252 9.99386 15.4757 10.4954C15.1406 10.9683 14.6833 11.2047 14.104 11.2047ZM14.104 10.216C14.3243 10.216 14.487 10.0966 14.5924 9.85773C14.7264 9.56636 14.7935 9.08393 14.7935 8.41044C14.7935 7.73695 14.7264 7.26169 14.5924 6.98465C14.4823 6.76493 14.3195 6.65507 14.104 6.65507C13.8886 6.65507 13.7282 6.76493 13.6228 6.98465C13.4888 7.26169 13.4218 7.73695 13.4218 8.41044C13.4218 9.08871 13.4888 9.57114 13.6228 9.85773C13.7282 10.0966 13.8886 10.216 14.104 10.216Z" fill="#231F20"/>
<path fill-rule="evenodd" clip-rule="evenodd" d="M15.0583 18.8276L10.4988 18.4324L10.3856 19.7383C10.4127 19.7527 10.4758 19.7846 10.5944 19.8259C10.7655 19.8856 10.9936 19.9456 11.2602 19.9989C11.7936 20.1056 12.4352 20.1765 12.9977 20.1765H13.5477V21.2765H12.9977C12.355 21.2765 11.6408 21.1968 11.0444 21.0775C10.7689 21.0224 10.5087 20.9569 10.2864 20.883L10.2836 20.9145L3.91315 19.2375L3.72163 19.965L12.3584 22.2386L18.0717 22.5699L18.4328 18.4034C18.3655 18.3669 18.2962 18.334 18.2249 18.3049C16.9005 17.7636 15.81 18.0161 15.3908 18.4687L15.0583 18.8276ZM19.2478 17.7359C19.0513 17.5957 18.8365 17.4745 18.6032 17.3792C17.086 16.7591 15.4788 16.9021 14.6572 17.7891L9.58884 17.3498L9.38991 19.6451L3.20067 18.0158L2.5 20.6775L12.1265 23.2116L12.1257 23.2268L12.2006 23.2311L12.2443 23.2426L12.2466 23.2338L18.0034 23.5676L17.9995 23.6134L21.7198 23.9358L22.2347 17.9948L19.2478 17.7359ZM19.4243 18.7549L21.1521 18.9047L20.8099 22.8532L19.0821 22.7035L19.4243 18.7549Z" fill="#231F20"/>
</svg>
