<svg width="25" height="24" viewBox="0 0 25 24" fill="none" xmlns="http://www.w3.org/2000/svg">
<path d="M8.20256 16.6162C8.20256 17.0308 8.42114 17.2382 8.85832 17.2382C9.28808 17.2382 9.50296 17.0308 9.50296 16.6162V15.9621C10.1476 15.8263 10.6441 15.5404 10.9923 15.1043C11.3183 14.6968 11.4814 14.1929 11.4814 13.5924C11.4814 12.9848 11.2442 12.4736 10.77 12.059C10.4959 11.8231 10.0216 11.5515 9.34736 11.2441C8.93241 11.0511 8.65084 10.901 8.50265 10.7937C8.26554 10.6293 8.14698 10.447 8.14698 10.2469C8.14698 9.75363 8.44708 9.507 9.04726 9.507C9.28438 9.507 9.51778 9.55704 9.74748 9.65712C9.95496 9.80009 10.1624 9.86086 10.3699 9.83941C10.5774 9.81797 10.7626 9.71789 10.9256 9.53917C11.2368 9.18175 11.222 8.85649 10.8812 8.5634C10.4736 8.26316 10.0142 8.0773 9.50296 8.00581V7.38389C9.50296 6.96927 9.28808 6.76196 8.85832 6.76196C8.42114 6.76196 8.20256 6.96927 8.20256 7.38389V8.02726C7.59496 8.14878 7.12074 8.41328 6.77989 8.82074C6.43904 9.22106 6.26862 9.72503 6.26862 10.3327C6.26862 10.8259 6.44275 11.2548 6.791 11.6194C7.03552 11.8839 7.41712 12.1484 7.93581 12.4129C8.01731 12.4558 8.13957 12.5165 8.30259 12.5952C8.74717 12.8096 9.04726 12.9776 9.20287 13.0991C9.46221 13.2922 9.59188 13.4995 9.59188 13.7211C9.59188 14.2429 9.26215 14.5038 8.60268 14.5038C8.28406 14.5038 7.95062 14.4288 7.60237 14.2787C7.36526 14.1357 7.13555 14.0785 6.91326 14.1071C6.68356 14.1428 6.49461 14.2679 6.34642 14.4824C6.07967 14.8827 6.14265 15.2187 6.53537 15.4903C7.03923 15.7763 7.59496 15.955 8.20256 16.0265V16.6162Z" fill="#231F20"/>
<path fill-rule="evenodd" clip-rule="evenodd" d="M13.5195 14.9864C14.0308 15.6941 14.7347 16.0479 15.6313 16.0479C16.5278 16.0479 17.2355 15.6941 17.7542 14.9864C18.2951 14.2358 18.5655 13.1957 18.5655 11.866C18.5655 10.5364 18.2951 9.51415 17.7542 8.7993C17.2355 8.11304 16.5278 7.76991 15.6313 7.76991C14.7347 7.76991 14.0308 8.10946 13.5195 8.78858C12.9786 9.50343 12.7081 10.5328 12.7081 11.8767C12.7081 13.2135 12.9786 14.2501 13.5195 14.9864ZM16.3871 14.032C16.224 14.3895 15.9721 14.5682 15.6313 14.5682C15.2978 14.5682 15.0496 14.3895 14.8866 14.032C14.6791 13.6031 14.5754 12.8811 14.5754 11.866C14.5754 10.8581 14.6791 10.1468 14.8866 9.73218C15.0496 9.40335 15.2978 9.23893 15.6313 9.23893C15.9647 9.23893 16.2166 9.40335 16.3871 9.73218C16.5945 10.1468 16.6983 10.8581 16.6983 11.866C16.6983 12.874 16.5945 13.596 16.3871 14.032Z" fill="#231F20"/>
<path fill-rule="evenodd" clip-rule="evenodd" d="M22.375 12C22.375 17.5228 17.8978 22 12.375 22C6.85215 22 2.375 17.5228 2.375 12C2.375 6.47715 6.85215 2 12.375 2C17.8978 2 22.375 6.47715 22.375 12ZM20.875 12C20.875 16.6944 17.0694 20.5 12.375 20.5C7.68058 20.5 3.875 16.6944 3.875 12C3.875 7.30558 7.68058 3.5 12.375 3.5C17.0694 3.5 20.875 7.30558 20.875 12Z" fill="#231F20"/>
</svg>
