<svg width="100" height="100" viewBox="0 0 100 100" fill="none" xmlns="http://www.w3.org/2000/svg">
<path fill-rule="evenodd" clip-rule="evenodd" d="M44.7172 55.8964L50.4332 50.5565C53.2981 47.8801 55.0999 44.0372 55.0999 39.7436C55.0999 31.5817 48.6061 25.0926 40.7516 25.0926C32.8971 25.0926 26.4033 31.5817 26.4033 39.7436C26.4033 44.0372 28.2051 47.8801 31.07 50.5565L36.786 55.8964L29.3982 58.4671C19.4708 61.9215 12.3927 69.5985 10.5384 78.6111H70.9649C69.1105 69.5985 62.0324 61.9215 52.105 58.4671L44.7172 55.8964ZM75.7725 78.6111C76.0332 80.1515 76.1683 81.7284 76.1683 83.3333H5.33496C5.33496 81.7284 5.47007 80.1515 5.73074 78.6111C7.37091 68.9189 13.9819 60.6738 23.1825 55.9923C24.6726 55.2342 26.2305 54.5694 27.8463 54.0072C26.6292 52.8702 25.558 51.5745 24.6646 50.1524C22.7757 47.1459 21.6811 43.5746 21.6811 39.7436C21.6811 29.0441 30.2192 20.3704 40.7516 20.3704C51.2839 20.3704 59.8221 29.0441 59.8221 39.7436C59.8221 43.5746 58.7275 47.1459 56.8386 50.1523C55.9451 51.5744 54.874 52.8702 53.6569 54.0072C55.2726 54.5694 56.8306 55.2341 58.3207 55.9923C67.5213 60.6737 74.1323 68.9189 75.7725 78.6111Z" fill="#8A8A8A"/>
<path d="M70.2962 42.6861L64.5802 48.0261L71.9679 50.5967C81.8954 54.0511 88.9735 61.7281 90.8279 70.7407H78.9345C79.3456 72.021 79.6678 73.3346 79.8948 74.6759C79.939 74.9372 79.9796 75.1996 80.0165 75.463H96.0313C96.0313 73.858 95.8962 72.2811 95.6355 70.7407C93.9953 61.0485 87.3843 52.8034 78.1837 48.1219C76.6936 47.3638 75.1356 46.699 73.5199 46.1368C74.7369 44.9998 75.8081 43.7041 76.7016 42.282C78.5904 39.2756 79.6851 35.7042 79.6851 31.8732C79.6851 21.1737 71.1469 12.5 60.6146 12.5C56.0707 12.5 51.8981 14.1143 48.622 16.8092C50.5608 17.2018 52.3936 17.8929 54.072 18.8335C56.0398 17.8022 58.2663 17.2222 60.6146 17.2222C68.4691 17.2222 74.9628 23.7113 74.9628 31.8732C74.9628 36.1668 73.1611 40.0097 70.2962 42.6861Z" fill="#8A8A8A"/>
</svg>
