<svg width="24" height="24" viewBox="0 0 24 24" fill="none" xmlns="http://www.w3.org/2000/svg">
<path fill-rule="evenodd" clip-rule="evenodd" d="M10.732 13.4151L12.1038 12.1336C12.7914 11.4912 13.2239 10.5689 13.2239 9.53846C13.2239 7.5796 11.6653 6.02222 9.78026 6.02222C7.89518 6.02222 6.33667 7.5796 6.33667 9.53846C6.33667 10.5689 6.7691 11.4912 7.45668 12.1336L8.82852 13.4151L7.05546 14.0321C4.67288 14.8612 2.97414 16.7036 2.52909 18.8667H17.0315C16.5864 16.7036 14.8877 14.8612 12.5051 14.0321L10.732 13.4151ZM18.1853 18.8667C18.2478 19.2364 18.2803 19.6148 18.2803 20H1.28027C1.28027 19.6148 1.3127 19.2364 1.37526 18.8667C1.7689 16.5405 3.35555 14.5617 5.56368 13.4382C5.9213 13.2562 6.29521 13.0967 6.683 12.9617C6.39089 12.6888 6.13381 12.3779 5.91938 12.0366C5.46605 11.315 5.20334 10.4579 5.20334 9.53846C5.20334 6.97057 7.2525 4.88889 9.78026 4.88889C12.308 4.88889 14.3572 6.97057 14.3572 9.53846C14.3572 10.4579 14.0945 11.315 13.6411 12.0366C13.4267 12.3779 13.1696 12.6888 12.8775 12.9617C13.2653 13.0967 13.6392 13.2562 13.9968 13.4381C16.205 14.5617 17.7916 16.5405 18.1853 18.8667Z" fill="#231F20"/>
<path d="M16.871 10.2447L15.4991 11.5263L17.2722 12.1432C19.6548 12.9723 21.3535 14.8147 21.7986 16.9778H18.9442C19.0428 17.285 19.1201 17.6003 19.1746 17.9222C19.1852 17.9849 19.195 18.0479 19.2038 18.1111H23.0474C23.0474 17.7259 23.015 17.3475 22.9524 16.9778C22.5588 14.6517 20.9721 12.6728 18.764 11.5493C18.4064 11.3673 18.0324 11.2078 17.6446 11.0728C17.9367 10.7999 18.1938 10.489 18.4083 10.1477C18.8616 9.42613 19.1243 8.56902 19.1243 7.64957C19.1243 5.08168 17.0751 3 14.5474 3C13.4569 3 12.4554 3.38744 11.6692 4.03422C12.1345 4.12843 12.5743 4.2943 12.9772 4.52004C13.4494 4.27253 13.9838 4.13333 14.5474 4.13333C16.4325 4.13333 17.991 5.69071 17.991 7.64957C17.991 8.68004 17.5585 9.60233 16.871 10.2447Z" fill="#231F20"/>
</svg>
