<svg width="24" height="24" viewBox="0 0 24 24" fill="none" xmlns="http://www.w3.org/2000/svg">
<path d="M3 3H16.3158V9.68421H15.3158V4H4V19.1053H16.3158V20.1053H3V3Z" fill="#231F20"/>
<path d="M13.4737 6.78946H5.8421V7.78946H13.4737V6.78946Z" fill="#231F20"/>
<path d="M13.4737 9.63159H5.8421V10.6316H13.4737V9.63159Z" fill="#231F20"/>
<path d="M5.8421 12.4737H11.5789V13.4737H5.8421V12.4737Z" fill="#231F20"/>
<path d="M11.5789 15.3158H5.8421V16.3158H11.5789V15.3158Z" fill="#231F20"/>
<path d="M17.7368 11.4967V14.4801L19.2733 16.3238L18.505 16.964L16.7368 14.8422V11.4967H17.7368Z" fill="#231F20"/>
<path fill-rule="evenodd" clip-rule="evenodd" d="M17.2369 18.6579C19.5913 18.6579 21.5 16.7492 21.5 14.3947C21.5 12.0403 19.5913 10.1316 17.2369 10.1316C14.8824 10.1316 12.9737 12.0403 12.9737 14.3947C12.9737 16.7492 14.8824 18.6579 17.2369 18.6579ZM17.2369 17.6579C19.039 17.6579 20.5 16.1969 20.5 14.3947C20.5 12.5926 19.039 11.1316 17.2369 11.1316C15.4347 11.1316 13.9737 12.5926 13.9737 14.3947C13.9737 16.1969 15.4347 17.6579 17.2369 17.6579Z" fill="#231F20"/>
</svg>
