<svg width="24" height="24" viewBox="0 0 24 24" fill="none" xmlns="http://www.w3.org/2000/svg">
<path d="M9.48054 3.07996C9.49743 3.09979 9.51456 3.11997 9.53194 3.14048C9.95809 3.64357 10.5253 4.34684 11.0915 5.14892C11.6588 5.95252 12.2182 6.84586 12.6341 7.72973C13.0535 8.62096 13.3077 9.46244 13.3077 10.1731V10.7165L13.8492 10.6713C14.6688 10.6031 15.2177 10.0208 15.6066 9.37263C15.8608 8.94901 16.0782 8.4447 16.2775 7.922C16.4049 8.12 16.5364 8.34676 16.6697 8.59875C16.9883 9.20147 17.2999 9.91602 17.5738 10.6552C18.1287 12.1528 18.5 13.6728 18.5 14.5321C18.5 18.1414 15.3933 21.1154 11.5 21.1154C7.6067 21.1154 4.5 18.1414 4.5 14.5321C4.5 12.9633 5.08311 11.5207 6.06245 10.3861C6.7214 9.94199 7.25581 9.18641 7.68732 8.36932C8.13927 7.51355 8.51032 6.52776 8.8035 5.60387C9.09743 4.67764 9.31728 3.80017 9.46358 3.15516C9.46934 3.12973 9.475 3.10466 9.48054 3.07996Z" stroke="#231F20"/>
<path d="M11.7218 13.4578C11.5968 13.6138 11.4629 13.7882 11.3293 13.9743C11.0728 14.3315 10.8244 14.7225 10.6418 15.1039C10.4557 15.4929 10.358 15.831 10.358 16.0934V16.6361L9.81717 16.5918C9.31167 16.5503 8.99525 16.1958 8.7988 15.8739C8.76014 15.8106 8.72334 15.7439 8.68818 15.675C8.57743 15.8982 8.46933 16.1496 8.37129 16.4097C8.11776 17.0825 7.96155 17.7336 7.96155 18.0714C7.96155 19.5363 9.25194 20.7857 10.9231 20.7857C12.5942 20.7857 13.8846 19.5363 13.8846 18.0714C13.8846 17.4432 13.6519 16.8618 13.2537 16.3971C12.9092 16.1569 12.6465 15.7781 12.4464 15.4056C12.2269 14.9971 12.0498 14.5325 11.9118 14.105C11.8387 13.8785 11.7754 13.6587 11.7218 13.4578Z" stroke="#231F20"/>
</svg>
