<svg width="24" height="24" viewBox="0 0 24 24" fill="none" xmlns="http://www.w3.org/2000/svg">
<path d="M9.48054 3.07996C9.49743 3.09979 9.51456 3.11997 9.53194 3.14048C9.95809 3.64357 10.5253 4.34684 11.0915 5.14892C11.6588 5.95252 12.2182 6.84586 12.6341 7.72973C13.0535 8.62096 13.3077 9.46244 13.3077 10.1731V10.7165L13.8492 10.6713C14.6688 10.6031 15.2177 10.0208 15.6066 9.37263C15.8608 8.94901 16.0782 8.4447 16.2775 7.922C16.4049 8.12 16.5364 8.34676 16.6697 8.59875C16.9883 9.20147 17.2999 9.91602 17.5738 10.6552C18.1287 12.1528 18.5 13.6728 18.5 14.5321C18.5 18.1414 15.3933 21.1154 11.5 21.1154C7.6067 21.1154 4.5 18.1414 4.5 14.5321C4.5 12.9633 5.08311 11.5207 6.06245 10.3861C6.7214 9.94199 7.25581 9.18641 7.68732 8.36932C8.13927 7.51355 8.51032 6.52776 8.8035 5.60387C9.09743 4.67764 9.31728 3.80017 9.46358 3.15516C9.46934 3.12973 9.475 3.10466 9.48054 3.07996Z" fill="#FC7B66" stroke="#231F20"/>
<path d="M8.68817 15.6751C8.72334 15.7441 8.76014 15.8107 8.7988 15.8741C8.99525 16.196 9.31166 16.5505 9.81717 16.5919L10.358 16.6362V16.0936C10.358 15.8312 10.4557 15.493 10.6418 15.1041C10.8244 14.7227 11.0728 14.3317 11.3292 13.9744C11.4629 13.7883 11.5968 13.614 11.7218 13.4579C11.7754 13.6588 11.8387 13.8787 11.9118 14.1051C12.0498 14.5327 12.2269 14.9972 12.4464 15.4057C12.6465 15.7782 12.9092 16.157 13.2537 16.3973C13.6519 16.8619 13.8846 17.4433 13.8846 18.0716C13.8846 19.5364 12.5942 20.7859 10.9231 20.7859C9.25193 20.7859 7.96155 19.5364 7.96155 18.0716C7.96155 17.7337 8.11775 17.0826 8.37129 16.4098C8.46932 16.1497 8.57742 15.8983 8.68817 15.6751Z" fill="#FC7B66" stroke="#231F20"/>
</svg>
