<svg width="101" height="100" viewBox="0 0 101 100" fill="none" xmlns="http://www.w3.org/2000/svg">
<path fill-rule="evenodd" clip-rule="evenodd" d="M44.219 62.9492L42.9936 64.0306C39.3823 67.2172 34.7335 69.1358 29.6666 69.1358C18.1607 69.1358 8.83325 59.2557 8.83325 47.0679C8.83325 34.8801 18.1607 25 29.6666 25C39.7978 25 48.2363 32.6582 50.1115 42.8069C50.4764 44.7407 50.4909 46.1445 50.4977 46.8118L50.499 46.93L50.4999 47.0679C50.4999 54.8237 56.4355 61.1111 63.7575 61.1111C64.6179 61.1111 65.4592 61.0243 66.2739 60.8585C67.7306 56.0123 71.6033 52.3077 76.3926 51.3329C76.7969 49.9878 77.0151 48.5549 77.0151 47.0679C77.0151 39.312 71.0794 33.0247 63.7575 33.0247C60.0628 33.0247 56.7241 34.6229 54.3178 37.2074L52.5722 39.0822L48.6163 31.8245L49.7453 30.737C53.4441 27.1742 58.3633 25 63.7575 25C75.2634 25 84.5908 34.8801 84.5908 47.0679C84.5908 48.823 84.3974 50.5303 84.0319 52.1671C88.8102 54.2895 92.1666 59.2913 92.1666 65.1235C92.1666 72.8793 86.231 79.1667 78.909 79.1667C72.8533 79.1667 67.7459 74.8659 66.1605 68.9906C65.372 69.0865 64.5702 69.1358 63.7575 69.1358C54.9422 69.1358 47.4101 63.337 44.3667 55.1513L44.296 54.9617C43.7341 53.458 42.9243 51.2908 42.9218 47.3556L42.9218 47.3191C42.9232 47.2356 42.9242 47.1518 42.9242 47.0679C42.9242 39.312 36.9885 33.0247 29.6666 33.0247C22.3446 33.0247 16.409 39.312 16.409 47.0679C16.409 54.8237 22.3446 61.1111 29.6666 61.1111C33.0991 61.1111 36.223 59.732 38.5786 57.465L40.3176 55.7913L44.219 62.9492ZM76.5102 74.0845C78.6022 74.0845 80.2981 72.2881 80.2981 70.0721L80.298 70.0447V59.3725H82.8236V56.6975H77.7731L77.7727 66.288C77.3778 66.1402 76.9529 66.0597 76.5102 66.0597C74.4182 66.0597 72.7223 67.8561 72.7223 70.0721C72.7223 72.2881 74.4182 74.0845 76.5102 74.0845Z" fill="#8A8A8A"/>
</svg>
