<svg width="100" height="100" viewBox="0 0 100 100" fill="none" xmlns="http://www.w3.org/2000/svg">
<path d="M77.9413 14.5835H22.0589V47.5684C15.1834 50.6211 10.4167 57.2732 10.4167 64.9879C10.4167 75.5926 19.4237 84.1895 30.5344 84.1895C30.8152 84.1895 31.0946 84.184 31.3726 84.1732V45.8026C31.0946 45.7917 30.8152 45.7862 30.5344 45.7862C29.2287 45.7862 27.9521 45.9049 26.7158 46.1317V19.3839H73.2844V46.1317C72.048 45.9049 70.7714 45.7862 69.4658 45.7862C69.185 45.7862 68.9055 45.7917 68.6275 45.8026V84.1732C68.9055 84.184 69.185 84.1895 69.4658 84.1895C80.5764 84.1895 89.5834 75.5926 89.5834 64.9879C89.5834 57.2732 84.8168 50.6211 77.9413 47.5684V14.5835Z" fill="#8A8A8A"/>
<path d="M53.7092 52.5824L47.9356 65.6015H58.9825L50.1949 85.4168L45.9596 83.421L51.7332 70.4019H40.6864L49.4739 50.5866L53.7092 52.5824Z" fill="#8A8A8A"/>
</svg>
