<svg width="100" height="100" viewBox="0 0 100 100" fill="none" xmlns="http://www.w3.org/2000/svg">
<path d="M41.4526 51.6668V63.8312C40.9221 63.6436 40.3511 63.5416 39.7563 63.5416C36.9456 63.5416 34.667 65.8201 34.667 68.6308C34.667 71.4416 36.9456 73.7201 39.7563 73.7201C42.567 73.7201 44.8455 71.4416 44.8455 68.6308L44.8455 68.6135V55.0596L55.7025 55.0596V63.8313C55.1719 63.6437 54.6009 63.5417 54.0061 63.5417C51.1954 63.5417 48.9168 65.8202 48.9168 68.6309C48.9168 71.4417 51.1954 73.7202 54.0061 73.7202C56.8168 73.7202 59.0953 71.4417 59.0953 68.6309L59.0953 68.6139V51.6669L41.4526 51.6668Z" fill="#8A8A8A"/>
<path fill-rule="evenodd" clip-rule="evenodd" d="M18.8336 44.5834L14.167 27.0835H59.767L63.7892 42.1668H75.8336V59.0835H84.2504V65.4168H91.6671V69.5835H80.0837V63.2502H75.8336V83.3335H18.8336V44.5834ZM22.4348 41.9168L19.5904 31.2502H56.5658L59.4103 41.9168H22.4348ZM23.0003 46.3335H71.667V79.1668H23.0003V46.3335Z" fill="#8A8A8A"/>
</svg>
