<svg width="24" height="24" viewBox="0 0 24 24" fill="none" xmlns="http://www.w3.org/2000/svg">
<path d="M14.4371 6.63367H4L4.96639 10.2576H4.95368V19.68H18V10.2576H15.4035L14.4371 6.63367Z" fill="#FC7B66"/>
<path d="M9.94858 12.4V15.3194C9.82124 15.2744 9.6842 15.2499 9.54145 15.2499C8.86688 15.2499 8.32003 15.7968 8.32003 16.4714C8.32003 17.1459 8.86688 17.6928 9.54145 17.6928C10.216 17.6928 10.7629 17.1459 10.7629 16.4714L10.7629 16.4672V13.2143L13.3685 13.2143V15.3195C13.2412 15.2745 13.1042 15.25 12.9614 15.25C12.2868 15.25 11.74 15.7968 11.74 16.4714C11.74 17.146 12.2868 17.6928 12.9614 17.6928C13.636 17.6928 14.1828 17.146 14.1828 16.4714L14.1828 16.4673V12.4L9.94858 12.4Z" fill="#231F20"/>
<path fill-rule="evenodd" clip-rule="evenodd" d="M4.52002 10.7L3.40002 6.5H14.344L15.3094 10.12H18.2V14.18H20.22V15.7H22V16.7H19.22V15.18H18.2V20H4.52002V10.7ZM5.3843 10.06L4.70164 7.5H13.5757L14.2584 10.06H5.3843ZM5.52002 11.12H17.2V19H5.52002V11.12Z" fill="#231F20"/>
</svg>
