<svg width="101" height="100" viewBox="0 0 101 100" fill="none" xmlns="http://www.w3.org/2000/svg">
<path d="M32.9097 51.9385L38.0756 40.6382L34.2861 38.9059L26.4235 56.1052H36.3076L31.1417 67.4055L34.9312 69.1378L42.7938 51.9385H32.9097Z" fill="#8A8A8A"/>
<path fill-rule="evenodd" clip-rule="evenodd" d="M96.3333 31.2502C96.3333 43.9067 86.0732 54.1668 73.4167 54.1668C70.4767 54.1668 67.6661 53.6132 65.0833 52.6046V93.7502H6.75V14.5835H56.75C57.0256 14.5835 57.2888 14.637 57.5296 14.7343C61.6492 10.7705 67.2483 8.3335 73.4167 8.3335C86.0732 8.3335 96.3333 18.5936 96.3333 31.2502ZM54.2061 18.7502H10.9167V89.5835H60.9167V50.4607C58.4697 48.8653 56.3464 46.8149 54.6667 44.4297V83.3335H17.1667V25.0002H51.3626C51.9967 22.7583 52.9634 20.656 54.2061 18.7502ZM50.5 29.1668H21.3333V79.1668H50.5V29.1668ZM76.4714 40.4171C76.4713 44.2139 73.3933 47.2918 69.5964 47.2918C65.7995 47.2918 62.7214 44.2137 62.7214 40.4168C62.7214 36.6198 65.7995 33.5418 69.5964 33.5418C70.4 33.5418 71.1714 33.6797 71.8882 33.933V17.5004H81.0549V22.0837H76.4716L76.4714 40.4171Z" fill="#8A8A8A"/>
</svg>
