<svg width="24" height="24" viewBox="0 0 24 24" fill="none" xmlns="http://www.w3.org/2000/svg">
<path d="M7.77833 12.4652L9.01813 9.75313L8.10866 9.33737L6.22165 13.4652H8.59382L7.35402 16.1773L8.26349 16.593L10.1505 12.4652H7.77833Z" fill="#231F20"/>
<path fill-rule="evenodd" clip-rule="evenodd" d="M23 7.5C23 10.5376 20.5376 13 17.5 13C16.7944 13 16.1199 12.8671 15.5 12.6251V22.5H1.5V3.5H13.5C13.5662 3.5 13.6293 3.51285 13.6871 3.53618C14.6758 2.58489 16.0196 2 17.5 2C20.5376 2 23 4.46243 23 7.5ZM12.8895 4.5H2.5V21.5H14.5V12.1105C13.9127 11.7276 13.4031 11.2355 13 10.6631V20H4V6H12.207C12.3592 5.46195 12.5912 4.95741 12.8895 4.5ZM12 7H5V19H12V7ZM18.2331 9.70006C18.2331 10.6113 17.4944 11.35 16.5831 11.35C15.6719 11.35 14.9331 10.6113 14.9331 9.69999C14.9331 8.78872 15.6719 8.04999 16.5831 8.04999C16.776 8.04999 16.9611 8.08308 17.1332 8.14389V4.20006H19.3332V5.30006H18.2332L18.2331 9.70006Z" fill="#231F20"/>
</svg>
