<svg width="100" height="100" viewBox="0 0 100 100" fill="none" xmlns="http://www.w3.org/2000/svg">
<path fill-rule="evenodd" clip-rule="evenodd" d="M57.3923 47.1356C57.3923 55.1015 50.9347 61.5591 42.9688 61.5591C35.003 61.5591 28.5454 55.1015 28.5454 47.1356C28.5454 39.1698 35.003 32.7122 42.9688 32.7122C50.9347 32.7122 57.3923 39.1698 57.3923 47.1356ZM53.2256 47.1356C53.2256 52.8003 48.6335 57.3924 42.9688 57.3924C37.3041 57.3924 32.712 52.8003 32.712 47.1356C32.712 41.471 37.3041 36.8788 42.9688 36.8788C48.6335 36.8788 53.2256 41.471 53.2256 47.1356Z" fill="#8A8A8A"/>
<path fill-rule="evenodd" clip-rule="evenodd" d="M51.2153 12.5V20.3296C52.9148 20.8518 54.5456 21.5312 56.0905 22.3509L61.6281 16.8133L73.2905 28.4757L67.753 34.0131C68.5728 35.5582 69.2523 37.1891 69.7746 38.8889L77.6041 38.8889V55.3819H69.7746C69.2523 57.0816 68.5728 58.7124 67.7531 60.2575L73.2908 65.7952L61.6285 77.4576L56.0907 71.9198C54.5457 72.7395 52.9149 73.419 51.2153 73.9413V81.7708H34.7222V73.9413C33.0225 73.419 31.3916 72.7395 29.8464 71.9197L24.3086 77.4575L12.6462 65.7952L18.1842 60.2572C17.3645 58.7123 16.6851 57.0815 16.1629 55.3819H8.33331V38.8889L16.1629 38.8889C16.6851 37.1892 17.3646 35.5584 18.1843 34.0134L12.6466 28.4757L24.3089 16.8133L29.8467 22.351C31.3917 21.5313 33.0225 20.8518 34.7222 20.3296V12.5H51.2153ZM56.8588 27.4752L61.6281 22.7059L67.3979 28.4757L62.6286 33.2449L64.0723 35.966C64.7699 37.2808 65.3477 38.6678 65.7917 40.1127L66.6959 43.0556H73.4375V51.2153H66.6959L65.7917 54.1581C65.3477 55.603 64.7699 56.9899 64.0724 58.3047L62.6288 61.0257L67.3983 65.7952L61.6285 71.565L56.859 66.7955L54.1379 68.2391C52.8232 68.9366 51.4363 69.5144 49.9914 69.9584L47.0486 70.8626V77.6042H38.8889V70.8626L35.946 69.9584C34.5011 69.5144 33.1141 68.9366 31.7993 68.239L29.0783 66.7953L24.3086 71.565L18.5388 65.7952L23.3085 61.0255L21.8649 58.3045C21.1675 56.9898 20.5897 55.6029 20.1458 54.1581L19.2415 51.2153H12.5V43.0556H19.2415L20.1458 40.1127C20.5897 38.6678 21.1675 37.2809 21.865 35.9662L23.3087 33.2452L18.5392 28.4757L24.3089 22.7059L29.0785 27.4754L31.7995 26.0318C33.1142 25.3342 34.5011 24.7564 35.946 24.3125L38.8889 23.4082V16.6667H47.0486V23.4082L49.9914 24.3125C51.4362 24.7564 52.8231 25.3342 54.1378 26.0316L56.8588 27.4752Z" fill="#8A8A8A"/>
<path fill-rule="evenodd" clip-rule="evenodd" d="M75.1736 89.2361C84.2825 89.2361 91.6667 81.8519 91.6667 72.7431C91.6667 63.6342 84.2825 56.25 75.1736 56.25C66.0648 56.25 58.6806 63.6342 58.6806 72.7431C58.6806 81.8519 66.0648 89.2361 75.1736 89.2361ZM72.4247 84.2882C75.1573 84.2882 77.3726 82.073 77.3726 79.3403V66.1459H80.6712V62.8473H74.074V74.6739C73.5581 74.4916 73.003 74.3923 72.4247 74.3923C69.692 74.3923 67.4767 76.6076 67.4767 79.3403C67.4767 82.0729 69.692 84.2882 72.4247 84.2882Z" fill="#8A8A8A"/>
</svg>
