<svg width="28" height="29" viewBox="0 0 28 29" fill="none" xmlns="http://www.w3.org/2000/svg">
<path fill-rule="evenodd" clip-rule="evenodd" d="M16.0932 20.4076C16.4651 20.1889 16.8144 19.9456 17.1401 19.6809L22.804 25.4502L24.5 23.7227L18.7813 17.8975C20.5852 15.2611 20.8476 11.6941 19.1658 8.72702C16.8477 4.63724 11.7137 3.23598 7.69867 5.59721C3.68363 7.95845 2.30797 13.188 4.62606 17.2778C6.94415 21.3676 12.0782 22.7688 16.0932 20.4076ZM15.1052 18.6644C18.175 16.859 19.2269 12.8605 17.4545 9.73347C15.6821 6.60644 11.7566 5.53504 8.68673 7.34043C5.61685 9.14582 4.56503 13.1443 6.33743 16.2714C8.10983 19.3984 12.0353 20.4698 15.1052 18.6644Z" fill="#D3060F"/>
</svg>
