<svg width="24" height="24" viewBox="0 0 24 24" fill="none" xmlns="http://www.w3.org/2000/svg">
<path fill-rule="evenodd" clip-rule="evenodd" d="M13.7942 16.6778C14.113 16.4903 14.4123 16.2818 14.6915 16.0548L19.5463 21L21 19.5193L16.0982 14.5263C17.6444 12.2665 17.8694 9.20906 16.4279 6.66585C14.4409 3.16032 10.0403 1.95924 6.59886 3.98316C3.15739 6.00707 1.97826 10.4896 3.96519 13.9951C5.95213 17.5006 10.3527 18.7017 13.7942 16.6778ZM12.9473 15.1836C15.5786 13.6361 16.4802 10.2088 14.961 7.52852C13.4418 4.84821 10.0771 3.92987 7.44577 5.47735C4.81444 7.02482 3.91288 10.4521 5.43208 13.1324C6.95128 15.8127 10.3159 16.7311 12.9473 15.1836Z" fill="#231F20"/>
</svg>
