<svg width="24" height="24" viewBox="0 0 24 24" fill="none" xmlns="http://www.w3.org/2000/svg">
<path fill-rule="evenodd" clip-rule="evenodd" d="M15.7479 12.0001C15.7479 14.07 14.0699 15.748 12 15.748C9.93008 15.748 8.25207 14.07 8.25207 12.0001C8.25207 9.93013 9.93008 8.25213 12 8.25213C14.0699 8.25213 15.7479 9.93013 15.7479 12.0001ZM14.6652 12.0001C14.6652 13.472 13.472 14.6653 12 14.6653C10.528 14.6653 9.33478 13.472 9.33478 12.0001C9.33478 10.5281 10.528 9.33483 12 9.33483C13.472 9.33483 14.6652 10.5281 14.6652 12.0001Z" fill="#231F20"/>
<path fill-rule="evenodd" clip-rule="evenodd" d="M14.1429 3V5.03451C14.5845 5.17021 15.0083 5.34676 15.4097 5.55975L16.8487 4.12081L19.8791 7.15127L18.4402 8.59018C18.6532 8.99167 18.8298 9.41547 18.9655 9.85714L21 9.85714V14.1429H18.9655C18.8298 14.5845 18.6533 15.0083 18.4403 15.4098L19.8792 16.8487L16.8488 19.8792L15.4098 18.4402C15.0083 18.6532 14.5846 18.8298 14.1429 18.9655V21H9.85719V18.9655C9.41551 18.8298 8.99172 18.6532 8.59023 18.4402L7.15121 19.8792L4.12076 16.8487L5.5598 15.4097C5.34681 15.0082 5.17026 14.5845 5.03456 14.1429H3.00005V9.85714L5.03456 9.85714C5.17027 9.41549 5.34683 8.99172 5.55983 8.59025L4.12085 7.15127L7.15131 4.12082L8.59028 5.55979C8.99176 5.34678 9.41553 5.17022 9.85719 5.03451V3H14.1429ZM15.6094 6.89131L16.8487 5.65199L18.348 7.15127L17.1087 8.39057L17.4838 9.09762C17.6651 9.43927 17.8152 9.79968 17.9306 10.1752L18.1656 10.9398H19.9173V13.0602H18.1656L17.9306 13.8248C17.8152 14.2003 17.6651 14.5607 17.4838 14.9023L17.1087 15.6094L18.3481 16.8487L16.8488 18.348L15.6094 17.1087L14.9024 17.4838C14.5607 17.665 14.2003 17.8152 13.8249 17.9305L13.0602 18.1655V19.9173H10.9399V18.1655L10.1752 17.9305C9.79973 17.8152 9.43932 17.665 9.09767 17.4838L8.39061 17.1086L7.15121 18.348L5.65194 16.8487L6.89135 15.6093L6.51624 14.9023C6.335 14.5607 6.18487 14.2003 6.06951 13.8248L5.83454 13.0601H4.08275V10.9398H5.83454L6.06951 10.1752C6.18487 9.79971 6.33501 9.43931 6.51626 9.09768L6.89139 8.39063L5.65203 7.15127L7.15131 5.65199L8.39066 6.89135L9.09772 6.51622C9.43935 6.33497 9.79975 6.18483 10.1752 6.06946L10.9399 5.83449V4.08271H13.0602V5.83449L13.8249 6.06946C14.2003 6.18482 14.5607 6.33495 14.9023 6.51619L15.6094 6.89131Z" fill="#231F20"/>
</svg>
