<svg width="24" height="24" viewBox="0 0 24 24" fill="none" xmlns="http://www.w3.org/2000/svg">
<path d="M12 3L15.2916 8.4695L21.5106 9.90983L17.3259 14.7305L17.8779 21.0902L12 18.6L6.12215 21.0902L6.67409 14.7305L2.48944 9.90983L8.70841 8.4695L12 3Z" fill="#FC7B66"/>
<path fill-rule="evenodd" clip-rule="evenodd" d="M15.2916 8.4695L12 3L8.70841 8.4695L2.48944 9.90983L6.67409 14.7305L6.12215 21.0902L12 18.6L17.8779 21.0902L17.3259 14.7305L21.5106 9.90983L15.2916 8.4695ZM19.6661 10.5091L14.6532 9.34813L12 4.93936L9.34677 9.34813L4.33388 10.5091L7.70697 14.3949L7.26208 19.5212L12 17.514L16.7379 19.5212L16.293 14.3949L19.6661 10.5091Z" fill="#231F20"/>
</svg>
