<svg width="90" height="30" viewBox="0 0 90 30" fill="none" xmlns="http://www.w3.org/2000/svg">
<path d="M59.4571 17.8591C59.6992 17.8591 59.8984 17.677 59.8984 17.4536V15.701C59.8984 15.4777 59.6992 15.2955 59.4571 15.2955H50.2933C49.5123 15.2955 48.8773 15.8808 48.8773 16.5943V16.649V16.71V28.9934C48.8773 29.216 49.0765 29.3997 49.3202 29.3997H51.7681C52.011 29.3997 52.2094 29.216 52.2094 28.9934V23.5471H59.4571C59.6992 23.5471 59.8984 23.3657 59.8984 23.1416V21.3889C59.8984 21.1672 59.6992 20.9834 59.4571 20.9834H54.1041C53.862 20.9834 53.6374 21.0397 53.4119 21.347L52.2094 22.9927V17.8591H59.4571Z" fill="#231F20"/>
<path d="M73.8315 17.8591C74.0736 17.8591 74.2737 17.677 74.2737 17.4536V15.7002C74.2737 15.4793 74.0736 15.2955 73.8315 15.2955H64.6273C63.8066 15.2955 63.2335 15.9956 63.2335 16.5183V28.3852C63.2335 28.9428 63.7319 29.3997 64.3392 29.3997H73.8315C74.0736 29.3997 74.2737 29.216 74.2737 28.9934V27.2384C74.2737 27.0183 74.0736 26.8337 73.8315 26.8337H73.1823H70.0533H66.8283H66.5632V23.5471H73.8315C74.0736 23.5471 74.2737 23.3657 74.2737 23.1416V21.3905C74.2737 21.1672 74.0736 20.9834 73.8315 20.9834H68.469C67.9388 20.9795 67.7721 21.3604 67.5951 21.5838L66.5632 23.0006V17.8591H73.8315Z" fill="#231F20"/>
<path d="M89.5579 15.2955H85.2241H82.2118H77.5938C77.3485 15.2955 77.1485 15.4776 77.1485 15.7017V17.4599C77.1485 17.6825 77.3485 17.8622 77.5938 17.8622L84.5089 17.863C84.1914 17.863 83.7199 17.9953 83.5524 18.2416C83.5524 18.2416 82.5245 19.3971 82.0745 19.9966C81.8808 20.254 81.9094 20.6626 81.9094 20.6626V28.995C81.9094 29.2167 82.1086 29.3997 82.3531 29.3997H84.7962C85.0423 29.3997 85.2399 29.2167 85.2399 28.995V17.8622H89.5579C89.8016 17.8622 89.9992 17.6769 89.9992 17.4536V15.7017C89.9992 15.4776 89.8016 15.2955 89.5579 15.2955Z" fill="#231F20"/>
<path d="M0.000404358 20.9775V27.5849C1.31246 27.5849 2.37132 26.8706 2.37132 25.3983V22.1821C2.37132 21.1811 2.00619 20.9569 1.41009 20.9569H0.00199184L0.000404358 20.9775Z" fill="#231F20"/>
<path d="M20.9707 19.7466V19.0038H5.79591V17.9188H12.3316V17.149H5.79591V16.0687H12.3316V15.2704H0V16.0687H4.21875V17.1577H0L0.00158813 17.9251H4.21875V19.0109H0.00158813V19.8718H2.2836C3.48215 19.8718 4.21875 20.4507 4.21875 21.7867V25.5145C4.21875 26.5679 5.49112 27.5871 6.45631 27.5871H9.44713L9.45586 25.1162L5.85227 26.3691V25.1423L11.3077 23.2812V27.5871H20.9707V26.9908H17.4631L12.0395 25.2057L17.4631 23.3881H20.9707V22.7854H5.81099C5.81099 22.7854 5.80623 21.0272 5.80623 20.8102C5.80623 20.1584 6.496 19.7466 7.4596 19.7466H20.9707Z" fill="#231F20"/>
<path d="M6.48488 28.712C5.42444 28.712 4.64022 28.7104 3.30118 27.6856C2.07961 28.7912 1.26205 28.7104 0 28.7104V29.3756H20.9707V28.712H6.48488Z" fill="#231F20"/>
<path d="M14.1837 17.1504V17.9186H20.971L21.4885 17.1504H14.1837Z" fill="#231F20"/>
<path d="M20.9675 15.2705H14.1842V16.0649H20.9675V15.2705Z" fill="#231F20"/>
<path d="M7.66193 21.7039H20.9627V20.8122H8.28343C8.03658 20.8122 7.65637 20.8431 7.65637 21.1242C7.65637 21.2058 7.66193 21.7039 7.66193 21.7039Z" fill="#231F20"/>
<path d="M20.9707 26.9907V23.388L15.7153 25.2056L20.9707 26.9907Z" fill="#EE2722"/>
<path d="M20.9661 19.0038L24.249 17.6139V29.4H26.1175L26.1151 15.2459L20.9661 17.3724V19.0038Z" fill="#231F20"/>
<path d="M27.4742 27.0448V28.0965L36.7014 28.0933V27.0448H27.4742Z" fill="#231F20"/>
<path d="M44.3889 16.7804V15.6851H36.7626V15.0682H34.8973V15.6851H27.4028V16.7804H34.8973V17.5407H27.4044L27.398 22.4034H34.8973V23.2445H27.398L27.3972 24.3445C27.3972 24.3445 42.5871 24.3413 42.6887 24.3413C43.9277 24.3413 44.3817 23.9477 44.3817 23.3545C44.3817 22.9871 44.3786 22.82 44.3786 22.82H42.5228V23.0425C42.5228 23.1447 42.4823 23.2009 42.3371 23.2009H36.7626V22.4034H44.3833V18.8221C44.3833 18.1933 43.8642 17.5407 42.5196 17.5407H36.7626V16.7804H44.3889ZM34.8973 21.3144H29.2855V20.5145H34.8973V21.3144ZM34.8973 19.4137H29.2792L29.2911 18.6241H34.8973V19.4137ZM42.5252 21.3128H36.7626V20.5145H42.5252V21.3128ZM41.9513 18.6281C42.453 18.6281 42.5252 18.8554 42.5252 19.1421V19.4137H36.7626V18.6281H41.9513Z" fill="#231F20"/>
<path d="M27.4032 26.1702H42.5136V27.6725C42.5136 27.8515 42.4216 27.9988 42.1723 28.0503C42.1057 28.059 42.0755 28.0622 42.0755 28.0622H36.6804V29.1583C36.6804 29.1583 41.7588 29.1686 42.6478 29.1686C43.5344 29.1686 44.3837 28.6047 44.3837 27.652V25.0733H27.4032V26.1702Z" fill="#231F20"/>
<path d="M0.00063324 8.17731V11.4482H90L85.4527 8.17731H0.00063324Z" fill="#EE2722"/>
<path d="M80.7836 4.81805L89.9998 11.4484V7.22485L80.7836 0.600014V4.81805Z" fill="#EE2722"/>
</svg>
