<svg width="150" height="50" viewBox="0 0 150 50" fill="none" xmlns="http://www.w3.org/2000/svg">
<path d="M99.0951 29.7652C99.4986 29.7652 99.8307 29.4616 99.8307 29.0894V26.1683C99.8307 25.7961 99.4986 25.4925 99.0951 25.4925H83.8222C82.5205 25.4925 81.4621 26.468 81.4621 27.6572V27.7483V27.8499V48.3224C81.4621 48.6933 81.7942 48.9995 82.2003 48.9995H86.2802C86.685 48.9995 87.0157 48.6933 87.0157 48.3224V39.2451H99.0951C99.4986 39.2451 99.8307 38.9428 99.8307 38.5693V35.6482C99.8307 35.2786 99.4986 34.9724 99.0951 34.9724H90.1735C89.77 34.9724 89.3956 35.0661 89.0199 35.5783L87.0157 38.3211V29.7652H99.0951Z" fill="white"/>
<path d="M123.053 29.7652C123.456 29.7652 123.789 29.4616 123.789 29.0894V26.167C123.789 25.7987 123.456 25.4925 123.053 25.4925H107.712C106.344 25.4925 105.389 26.6593 105.389 27.5305V47.3087C105.389 48.2379 106.22 48.9995 107.232 48.9995H123.053C123.456 48.9995 123.789 48.6933 123.789 48.3224V45.3974C123.789 45.0304 123.456 44.7229 123.053 44.7229H121.97H116.756H111.381H110.939V39.2451H123.053C123.456 39.2451 123.789 38.9428 123.789 38.5693V35.6508C123.789 35.2786 123.456 34.9724 123.053 34.9724H114.115C113.231 34.9658 112.953 35.6007 112.658 35.9729L110.939 38.3343V29.7652H123.053Z" fill="white"/>
<path d="M149.263 25.4924H142.04H137.02H129.323C128.914 25.4924 128.581 25.796 128.581 26.1695V29.0998C128.581 29.4707 128.914 29.7703 129.323 29.7703L140.848 29.7717C140.319 29.7717 139.533 29.9921 139.254 30.4026C139.254 30.4026 137.541 32.3284 136.791 33.3276C136.468 33.7566 136.516 34.4377 136.516 34.4377V48.3249C136.516 48.6945 136.848 48.9994 137.255 48.9994H141.327C141.737 48.9994 142.067 48.6945 142.067 48.3249V29.7703H149.263C149.669 29.7703 149.999 29.4615 149.999 29.0893V26.1695C149.999 25.796 149.669 25.4924 149.263 25.4924Z" fill="white"/>
<path d="M0.000671387 34.9625V45.9749C2.18743 45.9749 3.95219 44.7843 3.95219 42.3305V36.9701C3.95219 35.3017 3.34365 34.9282 2.35015 34.9282H0.0033172L0.000671387 34.9625Z" fill="white"/>
<path d="M34.9512 32.911V31.6729H9.65985V29.8646H20.5527V28.5816H9.65985V26.7812H20.5527V25.4506H0V26.7812H7.03124V28.5961H0L0.00264688 29.8751H7.03124V31.6848H0.00264688V33.1196H3.806C5.80359 33.1196 7.03124 34.0844 7.03124 36.3112V42.5242C7.03124 44.2797 9.15186 45.9785 10.7605 45.9785H15.7452L15.7598 41.8603L9.75378 43.9484V41.9038L18.8461 38.8019V45.9785H34.9512V44.9846H29.1052L20.0658 42.0094L29.1052 38.9801H34.9512V37.9757H9.68499C9.68499 37.9757 9.67705 35.0454 9.67705 34.6837C9.67705 33.5974 10.8267 32.911 12.4327 32.911H34.9512Z" fill="white"/>
<path d="M10.8081 47.8532C9.04074 47.8532 7.7337 47.8506 5.50196 46.1426C3.46601 47.9852 2.10342 47.8506 0 47.8506V48.9594H34.9512V47.8532H10.8081Z" fill="white"/>
<path d="M23.6395 28.584V29.8644H34.9517L35.8142 28.584H23.6395Z" fill="white"/>
<path d="M34.9459 25.4509H23.6403V26.7748H34.9459V25.4509Z" fill="white"/>
<path d="M12.7699 36.1732H34.9378V34.687H13.8057C13.3943 34.687 12.7606 34.7384 12.7606 35.207C12.7606 35.343 12.7699 36.1732 12.7699 36.1732Z" fill="white"/>
<path d="M34.9512 44.9844V38.9799L26.1922 42.0092L34.9512 44.9844Z" fill="#EE2722"/>
<path d="M34.9435 31.673L40.415 29.3565V49H43.5291L43.5252 25.4098L34.9435 28.9539V31.673Z" fill="white"/>
<path d="M45.7903 45.0746V46.8275L61.169 46.8222V45.0746H45.7903Z" fill="white"/>
<path d="M73.9815 27.9674V26.1419H61.271V25.1136H58.1622V26.1419H45.6713V27.9674H58.1622V29.2345H45.674L45.6634 37.339H58.1622V38.7408H45.6634L45.662 40.5742C45.662 40.5742 70.9785 40.5689 71.1478 40.5689C73.2129 40.5689 73.9696 39.9129 73.9696 38.9243C73.9696 38.3118 73.9643 38.0333 73.9643 38.0333H70.8713V38.4042C70.8713 38.5745 70.8039 38.6682 70.5618 38.6682H61.271V37.339H73.9722V31.3702C73.9722 30.3222 73.107 29.2345 70.866 29.2345H61.271V27.9674H73.9815ZM58.1622 35.5241H48.8092V34.1909H58.1622V35.5241ZM58.1622 32.3562H48.7987L48.8185 31.0402H58.1622V32.3562ZM70.8753 35.5214H61.271V34.1909H70.8753V35.5214ZM69.9188 31.0468C70.7549 31.0468 70.8753 31.4256 70.8753 31.9035V32.3562H61.271V31.0468H69.9188Z" fill="white"/>
<path d="M45.6719 43.6169H70.8561V46.1209C70.8561 46.4192 70.7026 46.6647 70.2872 46.7505C70.1761 46.765 70.1258 46.7703 70.1258 46.7703H61.134V48.5971C61.134 48.5971 69.598 48.6143 71.0796 48.6143C72.5573 48.6143 73.9728 47.6745 73.9728 46.0866V41.7888H45.6719V43.6169Z" fill="white"/>
<path d="M0.00105286 13.6288V19.0802H150L142.421 13.6288H0.00105286Z" fill="#EE2722"/>
<path d="M134.639 8.03006L150 19.0807V12.0414L134.639 1V8.03006Z" fill="#EE2722"/>
</svg>
